<?xml version="1.0" encoding="UTF-8"?>
<svg id="_Слой_2" data-name="Слой 2" xmlns="http://www.w3.org/2000/svg" viewBox="0 0 1245.04 1580.46">
  <defs>
    <style>
      .cls-1, .cls-2 {
        fill: #fff;
      }

      .cls-2 {
        fill-rule: evenodd;
      }
    </style>
  </defs>
  <g id="Logo">
    <g id="Logo_White" data-name="Logo White">
      <path id="Makr" class="cls-2" d="m623.04,0C278.51,0,0,280.57,0,627.67c0,277.45,178.45,512.31,426.01,595.44,30.95,6.25,42.29-13.51,42.29-30.12,0-14.55-1.02-64.43-1.02-116.4-173.31,37.42-209.4-74.82-209.4-74.82-27.85-72.74-69.12-91.44-69.12-91.44-56.73-38.45,4.13-38.45,4.13-38.45,62.92,4.16,95.94,64.43,95.94,64.43,55.69,95.6,145.44,68.59,181.54,51.96,5.15-40.53,21.67-68.59,39.2-84.17-138.23-14.55-283.67-68.59-283.67-309.68,0-68.59,24.74-124.7,63.94-168.34-6.19-15.58-27.85-80.03,6.2-166.27,0,0,52.61-16.63,171.22,64.43,50.78-13.74,103.16-20.73,155.77-20.79,52.61,0,106.23,7.28,155.75,20.79,118.63-81.06,171.23-64.43,171.23-64.43,34.05,86.25,12.37,150.69,6.19,166.27,40.24,43.64,63.96,99.75,63.96,168.34,0,241.1-145.44,294.08-284.7,309.68,22.7,19.74,42.29,57.15,42.29,116.38,0,84.17-1.02,151.72-1.02,172.5,0,16.63,11.35,36.38,42.29,30.15,247.56-83.15,426.01-318,426.01-595.45C1246.06,280.57,966.53,0,623.04,0Z"/>
      <g id="Type">
        <path class="cls-1" d="m365.43,1451.09h-70.28c-1.81,0-3.28,1.47-3.28,3.29v34.36c0,1.81,1.47,3.29,3.28,3.29h27.42v42.69s-6.16,2.1-23.18,2.1c-20.08,0-48.13-7.34-48.13-69.02s29.21-69.81,56.63-69.81c23.74,0,33.96,4.18,40.47,6.19,2.04.63,3.94-1.41,3.94-3.22l7.84-33.2c0-.85-.29-1.87-1.26-2.57-2.64-1.89-18.76-10.91-59.49-10.91-46.92,0-95.05,19.96-95.05,115.92s55.1,110.26,101.53,110.26c38.45,0,61.77-16.43,61.77-16.43.96-.53,1.06-1.87,1.06-2.49v-107.17c0-1.81-1.47-3.29-3.28-3.29Z"/>
        <path class="cls-1" d="m727.63,1365.78c0-1.83-1.45-3.3-3.26-3.3h-39.57c-1.81,0-3.28,1.48-3.28,3.3,0,0,.01,76.48.01,76.48h-61.68v-76.48c0-1.83-1.46-3.3-3.27-3.3h-39.57c-1.8,0-3.27,1.48-3.27,3.3v207.07c0,1.83,1.47,3.31,3.27,3.31h39.57c1.81,0,3.27-1.49,3.27-3.31v-88.57h61.68s-.11,88.57-.11,88.57c0,1.83,1.47,3.31,3.28,3.31h39.67c1.81,0,3.26-1.49,3.27-3.31v-207.07Z"/>
        <g>
          <path class="cls-1" d="m440.1,1392.95c0-14.25-11.42-25.76-25.52-25.76s-25.51,11.51-25.51,25.76,11.43,25.78,25.51,25.78,25.52-11.55,25.52-25.78Z"/>
          <path class="cls-1" d="m437.27,1529.17v-95.59c0-1.81-1.46-3.3-3.27-3.3h-39.45c-1.81,0-3.43,1.87-3.43,3.68v136.95c0,4.02,2.51,5.22,5.75,5.22h35.54c3.9,0,4.86-1.92,4.86-5.29v-41.68Z"/>
        </g>
        <path class="cls-1" d="m878.02,1430.6h-39.27c-1.8,0-3.27,1.48-3.27,3.31v101.53s-9.98,7.3-24.14,7.3-17.92-6.43-17.92-20.29v-88.54c0-1.83-1.46-3.31-3.27-3.31h-39.85c-1.8,0-3.27,1.48-3.27,3.31v95.25c0,41.18,22.95,51.26,54.52,51.26,25.9,0,46.79-14.31,46.79-14.31,0,0,.99,7.54,1.44,8.44.45.89,1.62,1.79,2.89,1.79l25.35-.11c1.8,0,3.27-1.49,3.27-3.31v-139c-.01-1.83-1.48-3.31-3.29-3.31Z"/>
        <path class="cls-1" d="m985.35,1425.95c-22.3,0-37.47,9.95-37.47,9.95v-70.12c0-1.83-1.46-3.3-3.27-3.3h-39.68c-1.8,0-3.27,1.48-3.27,3.3v207.07c0,1.83,1.47,3.31,3.28,3.31h27.53c1.24,0,2.18-.64,2.87-1.76.68-1.11,1.67-9.55,1.67-9.55,0,0,16.23,15.38,46.95,15.38,36.06,0,56.75-18.29,56.75-82.12s-33.03-72.17-55.35-72.17Zm-15.49,116.67c-13.62-.41-22.86-6.6-22.86-6.6v-65.58s9.11-5.59,20.3-6.58c14.14-1.27,27.77,3.01,27.77,36.74,0,35.57-6.15,42.59-25.2,42.02Z"/>
        <path class="cls-1" d="m551.01,1430.27h-29.68s-.04-39.21-.04-39.22c0-1.48-.77-2.23-2.48-2.23h-40.45c-1.57,0-2.42.69-2.42,2.2v40.52s-20.27,4.89-21.64,5.29c-1.36.4-2.37,1.66-2.37,3.16v25.47c0,1.83,1.46,3.31,3.27,3.31h20.74v61.26c0,45.5,31.92,49.97,53.46,49.97,9.84,0,21.61-3.16,23.56-3.88,1.18-.43,1.86-1.65,1.86-2.97l.03-28.01c0-1.83-1.54-3.31-3.28-3.31s-6.16.7-10.71.7c-14.58,0-19.52-6.78-19.52-15.55s0-58.22,0-58.22h29.69c1.81,0,3.28-1.48,3.28-3.31v-31.9c0-1.83-1.47-3.3-3.28-3.3Z"/>
      </g>
    </g>
  </g>
</svg>